<svg version="1" xmlns="http://www.w3.org/2000/svg" width="373.333" height="373.333" viewBox="0 0 280.000000 280.000000"><path d="M123 7C42.7 18.3-8.8 96.9 13.1 174.8c11.3 40.4 42.9 74.3 82.5 88.5 14.6 5.2 26.5 7.2 44.4 7.2s29.8-2 44.4-7.2c34.2-12.3 62.9-39.5 77.1-73 26.6-63.2.6-136.7-59.6-168.7-18.7-10-36-14.5-57.9-15.1-8-.2-17.4 0-21 .5zm-21.6 36.5c1.7.8 4.9 3 7.1 4.7 2.9 2.4 4.6 3.2 7.1 2.9 4.4-.3 7.3 1.4 9 5.4 1.8 4.4.3 9-3.7 11-4 2.1-6.3 1.9-9.9-1.2-3.1-2.5-3.2-2.9-2.7-8l.6-5.4-4.7-3.4c-3.3-2.5-5.6-3.5-7.7-3.3-1.7.1-3.7-.2-4.4-.6-1.2-.8-1.1-1.1.4-2.3 2.4-1.7 4.9-1.7 8.9.2zm78 29.1c5.3 2.9 5.7 3.3 3.5 3.8-11.7 2.5-75.5 4-80.7 1.9-2.3-.9-2.3-1 2.3-4.7 4.1-3.4 4.9-3.7 7.1-2.7 8.7 3.9 17.2-2.9 16.1-12.8-.5-4-.2-5 2-7.3l2.6-2.7 20.6 10.6c11.3 5.9 23.3 12.1 26.5 13.9zm8.1 15.1c-.4 4.3-.9 8-1.1 8.1-.3.4-43.2 1.8-68.8 2.3l-13.9.3-2.8-8.2c-1.5-4.5-2.5-8.2-2.1-8.2.4 0 7.2.5 15.2 1 14.1 1 46.9 0 63-2 12.4-1.4 11.3-2.1 10.5 6.7zm-1.2 19.5c-.3 4-.6 7.9-.8 8.5-.3 1-8.8 1.3-37.8 1.3h-37.4l-2.6-7.1c-1.7-4.8-2.1-7.2-1.3-7.4.9-.3 44.7-1.7 72.7-2.3l7.6-.2-.4 7.2zm-66.2 34.5c1.3 3.5-.2 12.5-3 18.4-1.2 2.4-2.1 5.4-2.1 6.8 0 2.2.5 1.8 3.6-2.9 5.2-8 7.7-9.6 10.7-6.5 1.2 1.2 1.4 3.5 1 11.7l-.6 10.3 2.1-1.8c1.1-1 3.9-5.6 6.1-10.2 3-6.1 4.9-8.9 7-10 3.6-1.8 8.2-2 9.9-.3.9.9 1.8.9 3.7 0 4.2-1.9 4.8-1.5 4.1 2.5-.4 2.1-.9 7.1-1.3 11.2-.4 5.9-.3 7.3.8 6.9 2.3-.7 7.9-11 7.9-14.4 0-3.3 1.6-5.6 5.1-7.4 2.4-1.3 3.5.7 2.5 4.8-.4 1.5-1 4-1.3 5.7l-.6 3 2.3-3c4.8-6.2 8.5-9.5 10.7-9.5 3.7 0 4.2 2.6 2.7 12.5-.7 4.9-1.3 9.1-1.4 9.2 0 .2.7.3 1.5.3 2.1 0 8.4-9.8 9.2-14.3.6-3.9 3.3-6.7 6.5-6.7 2.2 0 2.2 1.5.4 6.6-1.7 5-3 14-2.1 15.4 1.9 3.1 9.8-7 11-14.1.8-4.5 4.7-8.1 6.7-6.1.8.8.7 2.7-.7 7.1-2.5 8.2-1.7 9.2 3.3 4.6 6.6-5.9 6.2-3.2-.5 3.7-5.7 6-6 6.6-6.7 12.8-1 9.5-3.3 16.7-5.8 18.5-3.2 2.2-9.4 1.9-11.8-.5-4.1-4.1-2-9.5 6.5-17.5 4.4-4.2 6.7-7.1 7.1-9.3l.6-3.2-4.6 4.6c-3.9 4-4.9 4.5-7.3 3.9-3.7-.9-3.8-1-3.8-5.9v-4.3l-4.6 5c-3.9 4.1-5.1 4.8-7 4.2-3.1-1-4-2.4-3.5-5.5 1.3-7.2 1.7-15 .8-15-.6 0-2.9 2.1-5.1 4.7-3.2 3.8-4.1 5.8-4.7 10-.3 2.9-.9 5.3-1.3 5.3-3.9-.1-5.1-1.4-5.1-5.4v-4.1l-2.7 3.8c-2.7 3.7-5.5 5.2-9 4.5-1.3-.2-1.9-1.5-2.3-4.2l-.5-3.9-1.7 3.6c-3.1 6.6-10.9 6.4-13.5-.3l-1.6-3.9-2.8 4.3c-2.9 4.6-5.6 6.2-8.9 5.1-1.8-.6-2-1.5-2-10.1 0-5.4-.4-9.4-1-9.4-.5 0-2.5 2.4-4.5 5.2-2.8 4.2-3.5 6.2-3.5 10.1 0 5.3-1.4 6.6-5 4.7-2-1.1-2.2-1.7-1.6-6.1.4-2.7.4-4.9.2-4.9-.3 0-1.7 2.1-3 4.7-3.1 6.3-5.7 8.5-9.3 8.1-2.6-.3-2.9-.8-3.8-6l-1-5.7-2.8 5c-5 9-14.1 11.8-19.1 5.8-2.1-2.5-2.6-4.1-2.6-8.7 0-3.1.6-6.8 1.3-8.2 1.6-3.2 7.3-7 10.5-7s6.2 2.7 6.2 5.6c0 3.2-4.7 8.3-9.3 10.3l-3.8 1.6 2.1 2.8c4.3 5.4 10.1 2.4 15-7.7 3.6-7.6 3.8-10.2.9-10.9-2.6-.7-2-3.1.9-3.5 1.9-.3 2.2-1 2.2-5.3 0-5.6 1.3-8.9 3.5-8.9 1.7 0 1.9 1.2 1.6 9.2-.3 6.3.3 6.9 4.9 4.3 3-1.7 4-1.8 4-.4 0 .5-2 1.9-4.5 3l-4.5 2v8.2c0 12.7 1.8 13.2 7.4 2 1.9-3.9 2.6-6.8 2.6-11.2 0-8.5 1.8-15.7 4.7-19.1 3.1-3.8 6-3.9 7.4-.3zm120.7 4.5c2.7 2.7.1 8.8-4.9 11.4-2.5 1.2-2.9 1.2-2.9 0 0-.7.7-1.9 1.6-2.7 1.1-.9 1.4-2.2.9-4.5-.4-2.5-.1-3.5 1.2-4.3 2.3-1.3 2.7-1.3 4.1.1zm-203.3 2.7c.5 1.6 1.1 1.7 5.1.9 5.6-1.2 12.8.4 16.2 3.4 2.8 2.7 2.9 8.1.2 12.6l-2 3.3 2.2 2.9c6.7 9.1-2.4 19.5-17.9 20.8-6 .4-6.5.3-6.1-1.4.3-1.6 1.5-2 8.1-2.4 7.1-.4 8.1-.8 10.3-3.3 2.6-3.1 3.2-8.4 1.3-11.5-1.1-1.7-1.5-1.7-5.1-.5-2.8.9-4.4 1-5.8.3-4.6-2.5-1-6 6-6 3.5 0 4.2-.4 5.1-2.6 1.4-3.8-.6-9.1-4.1-10.9-1.6-.8-5.2-1.5-8-1.5h-5.1l.6 6.2c.4 3.5 1.3 10.8 2 16.3 1.5 10.7.8 13.3-2.8 11.9-2.1-.7-2.4-2-3.7-14.9-1.4-13.6-2-16.7-3.4-16.2-.6.2-1.6 2.1-2.2 4.3-.8 2.8-1.7 4-3.2 4.2-4.6.7-1.2-8.7 3.8-10.3 1-.3 2.8-2.1 3.9-4 2.3-3.9 3.7-4.4 4.6-1.6zM254.1 163c2 1.1 2.6 4.5.9 5.5-.5.3-1-.1-1-.9 0-3.6-5.3-2.4-6.5 1.5-.6 1.8 1.1 7.9 2.2 7.9.2 0 2.6-1.1 5.3-2.5 5.1-2.6 7-3.1 7-1.7 0 .5-2.4 1.9-5.2 3.3-5 2.2-5.3 2.6-5 5.6.5 5.5-5.1 9.7-10.2 7.7-2.5-1-1.9-5 1.1-7.4l2.6-2.1-2.2-3.9c-2-3.5-2.1-4.5-1.1-7.5 1.7-5.2 7.6-7.9 12.1-5.5zm-145.7 49.2c1.8 2.9-.4 5.3-5.3 5.6-3.6.3-4.1.6-4.1 2.8 0 1.5-.6 2.4-1.5 2.4-1.2 0-1.5-1.4-1.5-6.5v-6.6l5.6.3c4.1.2 6 .8 6.8 2zm41-1.6c2.9 1.1 1.7 2.3-2.1 2.1-5.1-.3-5.8 1.6-.9 2.4 3.4.6 5.5 2.1 5.6 4.1 0 2.1-5.1 4-9 3.3-2.3-.4-4-1.1-3.8-1.7.4-1.1.5-1.2 4.1-.3 2.7.7 6.2-.9 5.2-2.5-.2-.4-2.2-1-4.4-1.4-4.1-.6-5.9-2.9-4-5.2 1.2-1.4 6.5-1.9 9.3-.8zm-19.4 1.9c0 1.1-1.1 1.5-4 1.5-2.3 0-4 .5-4 1.1 0 .7 1 .9 2.5.7 1.7-.4 2.5-.1 2.5.8 0 .8-1.1 1.4-2.5 1.4-1.6 0-2.5.6-2.5 1.6 0 1.3.8 1.5 4 1.2 2.8-.2 4 0 4 .9s-1.7 1.3-5.5 1.3H119v-10.9l5.3-.4c2.8-.2 5.3-.4 5.5-.5.1-.1.2.5.2 1.3zm-15 5c0 4.2-.3 5.5-1.5 5.5s-1.5-1.3-1.5-5.5.3-5.5 1.5-5.5 1.5 1.3 1.5 5.5zm43-3.5c0 1.6.7 2 3.1 2 2.6 0 3.1-.3 2.6-2-.4-1.4 0-2 1.1-2 1.4 0 1.7 1.1 1.7 5.5s-.3 5.5-1.6 5.5c-1.2 0-1.5-.7-1.1-2.5.4-2.2.1-2.5-2.7-2.5-2.6 0-3.1.4-3.1 2.5 0 1.6-.6 2.5-1.5 2.5-1.2 0-1.5-1.3-1.5-5.5s.3-5.5 1.5-5.5c.8 0 1.5.9 1.5 2zm23.5 0c2.5 2.8 1 7.1-2.8 8.4-5.9 2.1-11.1-4.1-7.1-8.5 2.3-2.5 7.6-2.5 9.9.1zm15.3.4c.5 2.3-1.4 3.6-5 3.6-2.3 0-2.8.4-2.8 2.5 0 1.6-.6 2.5-1.5 2.5-1.2 0-1.5-1.3-1.5-5.6v-5.5l5.2.3c4.2.2 5.4.7 5.6 2.2z"/><path d="M116.4 144.1c-.3.6-.8 4.1-1.1 7.8-.3 5.3-.2 6.2.7 4.8.7-1.1 1.4-4.5 1.7-7.8.6-5.7.2-7.1-1.3-4.8zM146.1 161.6c-1.5 1.9-2.1 4.1-2.1 7.6 0 10.6 4.3 11.9 8.9 2.6 3.6-7.1 3.9-10.3 1.2-11.8-3.2-1.7-5.8-1.2-8 1.6zM74.6 164.9c-1 1.1-2 3.8-2.3 6.1l-.6 4.2 3.1-1.6c3.6-1.9 5.5-4.8 5-7.9-.4-2.9-3-3.3-5.2-.8zM208.6 191.1c-5.5 6.4-6.1 13.9-1.1 13.9 1.7 0 2.6-.8 3.4-3 1.2-3.6 2.6-15 1.8-15-.3 0-2.1 1.9-4.1 4.1zM45 171c0 .5 1.1 1 2.5 1s2.5-.5 2.5-1c0-.6-1.1-1-2.5-1s-2.5.4-2.5 1zM244.7 183.5c-2 1.9-2.1 3.1-.6 4.1 1.8 1.1 4.3-2.1 3.2-4.1-.9-1.6-1.1-1.6-2.6 0zM99 214c0 1.8.5 2.1 3.3 1.8 2-.2 3.2-.8 3.2-1.8s-1.2-1.6-3.2-1.8c-2.8-.3-3.3 0-3.3 1.8zM173.7 214.7c-1.5 1.5-.6 5.2 1.3 5.8 2.5.8 5-1 5-3.5 0-2.4-4.6-4.1-6.3-2.3zM189 215c0 .5 1.1 1 2.5 1s2.5-.5 2.5-1c0-.6-1.1-1-2.5-1s-2.5.4-2.5 1z"/></svg>